<svg width="469" height="469" viewBox="0 0 469 469" fill="none" xmlns="http://www.w3.org/2000/svg">
<path d="M468.37 234.186C468.37 308.459 433.796 374.655 379.86 417.556C339.877 449.37 289.26 468.37 234.186 468.37C179.112 468.37 128.496 449.37 88.5096 417.556C34.5767 374.655 0 308.459 0 234.186C0 104.851 104.853 -3.05176e-05 234.186 -3.05176e-05C363.519 -3.05176e-05 468.37 104.851 468.37 234.186Z" fill="#BE4E3A"/>
<path d="M234.184 308.838C284.45 308.838 325.199 268.089 325.199 217.823C325.199 167.557 284.45 126.808 234.184 126.808C183.918 126.808 143.169 167.557 143.169 217.823C143.169 268.089 183.918 308.838 234.184 308.838Z" fill="#F8E4CC"/>
<path d="M379.351 416.902C339.367 448.717 288.75 467.716 233.677 467.716C178.603 467.716 127.986 448.717 88 416.902C117.28 373.888 171.561 345 233.677 345C295.792 345 350.077 373.881 379.351 416.902Z" fill="#F8E4CC" fill-opacity="0.933333"/>
</svg>
