<svg width="160" height="100" viewBox="0 0 160 100" fill="none" xmlns="http://www.w3.org/2000/svg">
<g clip-path="url(#clip0_1014_2)">
<path d="M154 0H6C2.68629 0 0 2.68629 0 6V94C0 97.3137 2.68629 100 6 100H154C157.314 100 160 97.3137 160 94V6C160 2.68629 157.314 0 154 0Z" fill="#BE4E3A"/>
<path d="M64 37.566C64 36.708 64.696 36.006 65.56 36H93.94C94.804 36 95.5 36.702 95.5 37.566V62.79C95.5 63.648 94.804 64.356 93.94 64.362H65.56C64.696 64.362 64 63.66 64 62.79V37.566ZM92.35 39.15H67.15V61.2L81.784 46.56C81.8789 46.4639 81.9919 46.3875 82.1166 46.3354C82.2412 46.2833 82.3749 46.2565 82.51 46.2565C82.6451 46.2565 82.7788 46.2833 82.9034 46.3354C83.0281 46.3875 83.1411 46.4639 83.236 46.56L92.35 55.68V39.15ZM70.3 45.45C70.3 46.2854 70.6319 47.0866 71.2226 47.6774C71.8134 48.2681 72.6146 48.6 73.45 48.6C74.2854 48.6 75.0866 48.2681 75.6774 47.6774C76.2681 47.0866 76.6 46.2854 76.6 45.45C76.6 44.6146 76.2681 43.8134 75.6774 43.2226C75.0866 42.6319 74.2854 42.3 73.45 42.3C72.6146 42.3 71.8134 42.6319 71.2226 43.2226C70.6319 43.8134 70.3 44.6146 70.3 45.45Z" fill="#F8E4CC"/>
</g>
<defs>
<clipPath id="clip0_1014_2">
<rect width="160" height="100" fill="white"/>
</clipPath>
</defs>
</svg>
